<svg width="214" height="48" viewBox="0 0 285 64" fill="none" xmlns="http://www.w3.org/2000/svg">
<path d="M68 28.7734C68 37.4677 64.2561 45.5869 58.7138 51.5439C53.1515 57.5223 45.9601 61.137 39.2412 61.137C32.4987 61.137 24.9223 57.502 18.9835 51.4996C13.0668 45.5195 9 37.4112 9 28.7734C9 20.0433 12.9952 13.671 18.75 9.42029C24.5631 5.12656 32.1902 3 39.2412 3C46.2941 3 53.5261 5.07766 58.948 9.31398C64.3104 13.5038 68 19.8709 68 28.7734Z" fill="white" stroke="url(#paint0_linear_108_44)" stroke-width="4"/>
<g filter="url(#filter0_d_108_44)">
<rect x="14.4121" y="14.3151" width="47.8059" height="25.1507" rx="12.5753" fill="url(#paint1_linear_108_44)" fill-opacity="0.2" shape-rendering="crispEdges"/>
</g>
<g filter="url(#filter1_d_108_44)">
<rect x="16.2646" y="16.1644" width="44.1" height="21.4521" rx="10.726" fill="#2B2B2B"/>
</g>
<g filter="url(#filter2_f_108_44)">
<ellipse cx="49.2473" cy="26.8904" rx="5.92941" ry="4.06849" fill="#06FEA5" fill-opacity="0.5"/>
</g>
<g filter="url(#filter3_b_108_44)">
<path d="M49.2473 23.9315L54.4356 28.3699H44.0591L49.2473 23.9315Z" fill="#06FEA5"/>
</g>
<g filter="url(#filter4_f_108_44)">
<ellipse cx="27.7531" cy="26.8904" rx="5.92941" ry="4.06849" fill="#06FEA5" fill-opacity="0.5"/>
</g>
<path d="M27.7527 23.9315L32.9409 28.3699H22.5645L27.7527 23.9315Z" fill="#06FEA5"/>
<path d="M83.0341 49.0685V14.1594H97.0114C99.5795 14.1594 101.722 14.5401 103.438 15.3014C105.153 16.0628 106.443 17.1196 107.307 18.4719C108.17 19.8128 108.602 21.3583 108.602 23.1083C108.602 24.4719 108.33 25.6708 107.784 26.7048C107.239 27.7276 106.489 28.5685 105.534 29.2276C104.591 29.8753 103.511 30.3355 102.295 30.6083V30.9492C103.625 31.006 104.869 31.381 106.028 32.0742C107.199 32.7673 108.148 33.7389 108.875 34.9889C109.602 36.2276 109.966 37.7048 109.966 39.4208C109.966 41.273 109.506 42.9264 108.585 44.381C107.676 45.8242 106.33 46.9662 104.545 47.8071C102.761 48.648 100.563 49.0685 97.9489 49.0685H83.0341ZM90.4148 43.0344H96.4318C98.4886 43.0344 99.9886 42.6423 100.932 41.8583C101.875 41.0628 102.347 40.006 102.347 38.6878C102.347 37.7219 102.114 36.8696 101.648 36.131C101.182 35.3923 100.517 34.8128 99.6534 34.3923C98.8011 33.9719 97.7841 33.7617 96.6023 33.7617H90.4148V43.0344ZM90.4148 28.7673H95.8864C96.8977 28.7673 97.7955 28.5912 98.5795 28.2389C99.375 27.8753 100 27.3639 100.455 26.7048C100.92 26.0458 101.153 25.256 101.153 24.3355C101.153 23.0742 100.705 22.0571 99.8068 21.2844C98.9205 20.5117 97.6591 20.1253 96.0227 20.1253H90.4148V28.7673ZM115.112 49.0685V22.8867H122.152V27.4548H122.425C122.902 25.8298 123.703 24.6026 124.828 23.773C125.953 22.9321 127.248 22.5117 128.714 22.5117C129.078 22.5117 129.47 22.5344 129.891 22.5798C130.311 22.6253 130.68 22.6878 130.998 22.7673V29.2105C130.658 29.1083 130.186 29.0173 129.584 28.9378C128.981 28.8583 128.43 28.8185 127.93 28.8185C126.862 28.8185 125.908 29.0514 125.067 29.5173C124.237 29.9719 123.578 30.6083 123.089 31.4264C122.612 32.2446 122.373 33.1878 122.373 34.256V49.0685H115.112ZM141.949 49.5628C140.278 49.5628 138.79 49.273 137.483 48.6935C136.176 48.1026 135.142 47.2333 134.38 46.0855C133.63 44.9264 133.255 43.4833 133.255 41.756C133.255 40.3014 133.522 39.0798 134.057 38.0912C134.591 37.1026 135.318 36.3071 136.238 35.7048C137.159 35.1026 138.204 34.648 139.375 34.3412C140.557 34.0344 141.795 33.8185 143.091 33.6935C144.613 33.5344 145.841 33.3867 146.772 33.2503C147.704 33.1026 148.38 32.8867 148.801 32.6026C149.221 32.3185 149.432 31.898 149.432 31.3412V31.2389C149.432 30.1594 149.091 29.3242 148.409 28.7333C147.738 28.1423 146.784 27.8469 145.545 27.8469C144.238 27.8469 143.199 28.1367 142.426 28.7162C141.653 29.2844 141.142 30.0003 140.892 30.8639L134.176 30.3185C134.517 28.7276 135.187 27.3526 136.187 26.1935C137.187 25.023 138.477 24.1253 140.057 23.5003C141.647 22.8639 143.488 22.5458 145.579 22.5458C147.034 22.5458 148.426 22.7162 149.755 23.0571C151.096 23.398 152.284 23.9264 153.318 24.6423C154.363 25.3583 155.187 26.2787 155.79 27.4037C156.392 28.5173 156.693 29.8526 156.693 31.4094V49.0685H149.807V45.4378H149.602C149.182 46.256 148.619 46.9776 147.915 47.6026C147.21 48.2162 146.363 48.6992 145.375 49.0514C144.386 49.3923 143.244 49.5628 141.949 49.5628ZM144.028 44.5514C145.096 44.5514 146.04 44.3412 146.858 43.9208C147.676 43.4889 148.318 42.9094 148.784 42.1821C149.25 41.4548 149.483 40.631 149.483 39.7105V36.9321C149.255 37.0798 148.943 37.2162 148.545 37.3412C148.159 37.4548 147.721 37.5628 147.233 37.6651C146.744 37.756 146.255 37.8412 145.767 37.9208C145.278 37.9889 144.835 38.0514 144.437 38.1083C143.585 38.2333 142.841 38.4321 142.204 38.7048C141.568 38.9776 141.074 39.3469 140.721 39.8128C140.369 40.2673 140.193 40.8355 140.193 41.5173C140.193 42.506 140.551 43.2617 141.267 43.7844C141.994 44.2958 142.915 44.5514 144.028 44.5514ZM162.806 49.0685V22.8867H170.068V49.0685H162.806ZM166.454 19.5117C165.375 19.5117 164.449 19.1537 163.676 18.4378C162.914 17.7105 162.534 16.8412 162.534 15.8298C162.534 14.8298 162.914 13.9719 163.676 13.256C164.449 12.5287 165.375 12.1651 166.454 12.1651C167.534 12.1651 168.454 12.5287 169.216 13.256C169.988 13.9719 170.375 14.8298 170.375 15.8298C170.375 16.8412 169.988 17.7105 169.216 18.4378C168.454 19.1537 167.534 19.5117 166.454 19.5117ZM183.626 33.9321V49.0685H176.365V22.8867H183.285V27.506H183.592C184.171 25.9833 185.143 24.7787 186.507 23.8923C187.87 22.9946 189.524 22.5458 191.467 22.5458C193.285 22.5458 194.87 22.9435 196.223 23.7389C197.575 24.5344 198.626 25.6708 199.376 27.148C200.126 28.6139 200.501 30.3639 200.501 32.398V49.0685H193.24V33.6935C193.251 32.0912 192.842 30.8412 192.012 29.9435C191.183 29.0344 190.041 28.5798 188.586 28.5798C187.609 28.5798 186.745 28.7901 185.995 29.2105C185.257 29.631 184.677 30.2446 184.257 31.0514C183.848 31.8469 183.637 32.8071 183.626 33.9321Z" fill="url(#paint2_linear_108_44)"/>
<path d="M206.84 49.0685V14.1594H220.818C223.386 14.1594 225.528 14.5401 227.244 15.3014C228.96 16.0628 230.249 17.1196 231.113 18.4719C231.977 19.8128 232.409 21.3583 232.409 23.1083C232.409 24.4719 232.136 25.6708 231.59 26.7048C231.045 27.7276 230.295 28.5685 229.34 29.2276C228.397 29.8753 227.318 30.3355 226.102 30.6083V30.9492C227.431 31.006 228.676 31.381 229.835 32.0742C231.005 32.7673 231.954 33.7389 232.681 34.9889C233.409 36.2276 233.772 37.7048 233.772 39.4208C233.772 41.273 233.312 42.9264 232.391 44.381C231.482 45.8242 230.136 46.9662 228.352 47.8071C226.568 48.648 224.369 49.0685 221.755 49.0685H206.84ZM214.221 43.0344H220.238C222.295 43.0344 223.795 42.6423 224.738 41.8583C225.681 41.0628 226.153 40.006 226.153 38.6878C226.153 37.7219 225.92 36.8696 225.454 36.131C224.988 35.3923 224.323 34.8128 223.46 34.3923C222.607 33.9719 221.59 33.7617 220.409 33.7617H214.221V43.0344ZM214.221 28.7673H219.693C220.704 28.7673 221.602 28.5912 222.386 28.2389C223.181 27.8753 223.806 27.3639 224.261 26.7048C224.727 26.0458 224.96 25.256 224.96 24.3355C224.96 23.0742 224.511 22.0571 223.613 21.2844C222.727 20.5117 221.465 20.1253 219.829 20.1253H214.221V28.7673ZM250.748 49.5798C248.1 49.5798 245.81 49.0173 243.879 47.8923C241.958 46.756 240.475 45.1764 239.43 43.1537C238.384 41.1196 237.862 38.7617 237.862 36.0798C237.862 33.3753 238.384 31.0117 239.43 28.9889C240.475 26.9548 241.958 25.3753 243.879 24.2503C245.81 23.1139 248.1 22.5458 250.748 22.5458C253.396 22.5458 255.68 23.1139 257.6 24.2503C259.532 25.3753 261.021 26.9548 262.066 28.9889C263.112 31.0117 263.634 33.3753 263.634 36.0798C263.634 38.7617 263.112 41.1196 262.066 43.1537C261.021 45.1764 259.532 46.756 257.6 47.8923C255.68 49.0173 253.396 49.5798 250.748 49.5798ZM250.782 43.9548C251.987 43.9548 252.992 43.6139 253.799 42.9321C254.606 42.2389 255.214 41.2958 255.623 40.1026C256.043 38.9094 256.254 37.5514 256.254 36.0287C256.254 34.506 256.043 33.148 255.623 31.9548C255.214 30.7617 254.606 29.8185 253.799 29.1253C252.992 28.4321 251.987 28.0855 250.782 28.0855C249.566 28.0855 248.543 28.4321 247.714 29.1253C246.896 29.8185 246.276 30.7617 245.856 31.9548C245.447 33.148 245.242 34.506 245.242 36.0287C245.242 37.5514 245.447 38.9094 245.856 40.1026C246.276 41.2958 246.896 42.2389 247.714 42.9321C248.543 43.6139 249.566 43.9548 250.782 43.9548ZM282.762 22.8867V28.3412H266.995V22.8867H282.762ZM270.574 16.6139H277.836V41.023C277.836 41.6935 277.938 42.2162 278.143 42.5912C278.347 42.9548 278.631 43.2105 278.995 43.3583C279.37 43.506 279.802 43.5798 280.29 43.5798C280.631 43.5798 280.972 43.5514 281.313 43.4946C281.654 43.4264 281.915 43.3753 282.097 43.3412L283.239 48.7446C282.876 48.8583 282.364 48.9889 281.705 49.1367C281.046 49.2958 280.245 49.3923 279.302 49.4264C277.552 49.4946 276.018 49.2617 274.699 48.7276C273.393 48.1935 272.376 47.3639 271.648 46.2389C270.921 45.1139 270.563 43.6935 270.574 41.9776V16.6139Z" fill="#353535"/>
<defs>
<filter id="filter0_d_108_44" x="0.412109" y="0.315063" width="75.8057" height="53.1507" filterUnits="userSpaceOnUse" color-interpolation-filters="sRGB">
<feFlood flood-opacity="0" result="BackgroundImageFix"/>
<feColorMatrix in="SourceAlpha" type="matrix" values="0 0 0 0 0 0 0 0 0 0 0 0 0 0 0 0 0 0 127 0" result="hardAlpha"/>
<feMorphology radius="4" operator="dilate" in="SourceAlpha" result="effect1_dropShadow_108_44"/>
<feOffset/>
<feGaussianBlur stdDeviation="5"/>
<feComposite in2="hardAlpha" operator="out"/>
<feColorMatrix type="matrix" values="0 0 0 0 0 0 0 0 0 0 0 0 0 0 0 0 0 0 0.09 0"/>
<feBlend mode="normal" in2="BackgroundImageFix" result="effect1_dropShadow_108_44"/>
<feBlend mode="normal" in="SourceGraphic" in2="effect1_dropShadow_108_44" result="shape"/>
</filter>
<filter id="filter1_d_108_44" x="2.26465" y="2.1644" width="72.1001" height="49.4521" filterUnits="userSpaceOnUse" color-interpolation-filters="sRGB">
<feFlood flood-opacity="0" result="BackgroundImageFix"/>
<feColorMatrix in="SourceAlpha" type="matrix" values="0 0 0 0 0 0 0 0 0 0 0 0 0 0 0 0 0 0 127 0" result="hardAlpha"/>
<feMorphology radius="4" operator="dilate" in="SourceAlpha" result="effect1_dropShadow_108_44"/>
<feOffset/>
<feGaussianBlur stdDeviation="5"/>
<feComposite in2="hardAlpha" operator="out"/>
<feColorMatrix type="matrix" values="0 0 0 0 0 0 0 0 0 0 0 0 0 0 0 0 0 0 0.09 0"/>
<feBlend mode="normal" in2="BackgroundImageFix" result="effect1_dropShadow_108_44"/>
<feBlend mode="normal" in="SourceGraphic" in2="effect1_dropShadow_108_44" result="shape"/>
</filter>
<filter id="filter2_f_108_44" x="33.3179" y="12.8219" width="31.8589" height="28.137" filterUnits="userSpaceOnUse" color-interpolation-filters="sRGB">
<feFlood flood-opacity="0" result="BackgroundImageFix"/>
<feBlend mode="normal" in="SourceGraphic" in2="BackgroundImageFix" result="shape"/>
<feGaussianBlur stdDeviation="5" result="effect1_foregroundBlur_108_44"/>
</filter>
<filter id="filter3_b_108_44" x="24.0591" y="3.93152" width="50.3765" height="44.4384" filterUnits="userSpaceOnUse" color-interpolation-filters="sRGB">
<feFlood flood-opacity="0" result="BackgroundImageFix"/>
<feGaussianBlur in="BackgroundImageFix" stdDeviation="10"/>
<feComposite in2="SourceAlpha" operator="in" result="effect1_backgroundBlur_108_44"/>
<feBlend mode="normal" in="SourceGraphic" in2="effect1_backgroundBlur_108_44" result="shape"/>
</filter>
<filter id="filter4_f_108_44" x="11.8237" y="12.8219" width="31.8589" height="28.137" filterUnits="userSpaceOnUse" color-interpolation-filters="sRGB">
<feFlood flood-opacity="0" result="BackgroundImageFix"/>
<feBlend mode="normal" in="SourceGraphic" in2="BackgroundImageFix" result="shape"/>
<feGaussianBlur stdDeviation="5" result="effect1_foregroundBlur_108_44"/>
</filter>
<linearGradient id="paint0_linear_108_44" x1="38.5" y1="1" x2="38.5" y2="58.4787" gradientUnits="userSpaceOnUse">
<stop stop-color="#5B76FF"/>
<stop offset="1" stop-color="#00E96B"/>
</linearGradient>
<linearGradient id="paint1_linear_108_44" x1="14.8138" y1="23.2045" x2="59.9127" y2="32.5724" gradientUnits="userSpaceOnUse">
<stop stop-color="#151515" stop-opacity="0.77"/>
<stop offset="0.24939" stop-color="#202020" stop-opacity="0.73"/>
<stop offset="0.796582" stop-color="#202020" stop-opacity="0.73"/>
<stop offset="0.989583" stop-color="#151515" stop-opacity="0.67"/>
</linearGradient>
<linearGradient id="paint2_linear_108_44" x1="-23.0994" y1="32.0685" x2="325.76" y2="32.0685" gradientUnits="userSpaceOnUse">
<stop stop-color="#5B76FF"/>
<stop offset="1" stop-color="#00E96B"/>
</linearGradient>
</defs>
</svg>
