<?xml version="1.0" standalone="no"?>
<!DOCTYPE svg PUBLIC "-//W3C//DTD SVG 20010904//EN"
 "http://www.w3.org/TR/2001/REC-SVG-20010904/DTD/svg10.dtd">
<svg version="1.0" xmlns="http://www.w3.org/2000/svg"
 width="2991.000000pt" height="2991.000000pt" viewBox="0 0 2991.000000 2991.000000"
 preserveAspectRatio="xMidYMid meet">
<metadata>
Created by potrace 1.14, written by Peter Selinger 2001-2017
</metadata>
<g transform="translate(0.000000,2991.000000) scale(0.100000,-0.100000)"
fill="#000000" stroke="none">
<path d="M16979 21606 c-2 -2 -76 -7 -164 -10 -180 -6 -309 -13 -399 -20 -33
-3 -101 -8 -151 -11 -49 -3 -106 -8 -125 -10 -19 -3 -66 -7 -105 -10 -38 -3
-81 -8 -95 -10 -14 -2 -54 -7 -90 -10 -36 -4 -76 -8 -90 -10 -14 -2 -54 -7
-90 -10 -36 -4 -73 -9 -83 -11 -10 -1 -70 -10 -135 -20 -154 -22 -146 -20
-227 -34 -38 -7 -83 -14 -100 -17 -28 -4 -289 -53 -310 -57 -5 -2 -28 -6 -50
-10 -193 -37 -608 -139 -860 -211 -381 -109 -926 -302 -1173 -416 -35 -16 -66
-29 -68 -29 -3 0 -24 -9 -47 -19 -23 -10 -85 -38 -137 -61 -95 -43 -521 -256
-615 -308 -485 -268 -867 -515 -1320 -855 -110 -83 -202 -153 -205 -156 -3 -4
-41 -36 -85 -71 -428 -344 -969 -862 -1411 -1349 -27 -29 -60 -66 -74 -81 -14
-15 -50 -55 -80 -90 -30 -35 -59 -68 -65 -74 -41 -46 -96 -110 -130 -151 -22
-27 -45 -53 -50 -59 -6 -6 -30 -36 -55 -66 -61 -74 -83 -101 -95 -114 -6 -6
-17 -20 -25 -32 -8 -11 -32 -41 -52 -65 -44 -53 -163 -203 -198 -249 -14 -18
-29 -38 -35 -44 -18 -20 -69 -87 -221 -291 -216 -288 -336 -454 -498 -689 -27
-39 -72 -105 -101 -146 -29 -41 -81 -118 -116 -170 -35 -52 -66 -97 -69 -100
-3 -3 -21 -30 -40 -60 -19 -30 -39 -60 -45 -66 -5 -7 -22 -31 -37 -55 -40 -65
-305 -462 -318 -477 -7 -7 -17 -23 -24 -35 -11 -21 -50 -82 -265 -407 -53 -80
-98 -149 -100 -154 -2 -5 -32 -51 -67 -103 -35 -52 -64 -96 -64 -98 0 -2 -57
-91 -126 -197 -69 -106 -158 -242 -198 -303 -63 -97 -379 -576 -406 -615 -6
-8 -32 -46 -58 -85 -26 -38 -81 -119 -122 -180 -41 -60 -77 -112 -80 -115 -3
-3 -19 -25 -36 -50 -17 -25 -57 -83 -89 -130 -74 -107 -413 -574 -434 -597 -9
-10 -24 -30 -33 -44 -23 -36 -397 -504 -438 -549 -8 -9 -32 -36 -52 -60 -20
-25 -48 -58 -63 -75 -483 -550 -947 -990 -1376 -1304 -68 -50 -128 -94 -134
-99 -41 -32 -296 -195 -415 -264 -189 -111 -496 -264 -660 -329 -89 -36 -315
-122 -325 -124 -5 -1 -17 -5 -25 -8 -44 -17 -332 -102 -417 -122 -134 -33
-264 -59 -412 -85 -62 -11 -115 -21 -117 -23 -3 -3 264 -50 356 -62 14 -2 72
-11 130 -20 58 -9 121 -18 140 -21 19 -2 60 -8 90 -14 30 -5 75 -11 100 -14
25 -4 54 -8 65 -10 11 -2 47 -7 80 -11 32 -4 66 -8 75 -10 8 -1 40 -6 70 -9
30 -4 66 -8 80 -10 14 -3 68 -10 120 -16 52 -6 109 -13 125 -15 17 -2 57 -7
90 -10 33 -3 71 -8 85 -10 14 -2 61 -7 105 -11 44 -3 88 -8 99 -10 10 -2 51
-6 90 -9 39 -4 91 -8 116 -11 24 -2 83 -7 130 -10 47 -3 95 -7 108 -9 13 -2
71 -7 130 -11 59 -3 123 -8 142 -9 19 -2 85 -7 145 -10 695 -41 1409 -41 2100
0 165 9 371 25 405 30 14 2 61 7 105 11 109 10 111 10 185 18 36 4 76 9 90 11
14 2 50 6 81 10 31 3 66 7 77 10 11 2 49 6 84 10 35 3 70 8 78 10 8 2 35 7 60
10 42 6 61 9 130 20 14 2 48 7 75 11 28 3 59 8 70 10 11 3 36 7 55 10 88 13
470 89 610 120 85 20 162 37 170 39 8 2 35 8 60 14 25 7 52 13 60 15 187 46
535 144 680 192 47 15 87 28 90 29 13 2 264 88 300 102 8 4 17 7 20 8 3 1 14
5 25 9 11 4 49 18 85 31 36 13 79 30 95 36 17 7 35 13 40 15 10 2 160 63 295
119 114 47 198 85 337 151 74 35 138 64 142 64 4 0 12 5 18 11 6 6 42 26 80
43 37 18 92 44 120 59 29 15 56 27 59 26 4 0 10 3 13 8 3 4 47 29 96 55 50 26
110 58 135 72 25 14 52 29 60 33 67 31 565 341 725 451 172 119 502 359 531
387 6 5 23 19 38 30 32 23 258 205 266 214 3 3 32 28 65 56 100 83 277 240
385 340 97 90 515 508 600 601 133 144 265 291 321 358 13 16 29 34 36 41 17
18 82 94 128 150 22 26 56 67 75 90 19 22 49 58 65 79 17 21 37 46 45 56 8 10
51 64 95 120 44 56 85 108 90 114 6 6 58 74 115 151 57 77 107 142 110 145 4
3 33 43 66 89 32 46 80 113 106 150 26 36 53 74 60 84 7 11 31 44 54 75 22 32
96 140 165 242 68 102 127 186 132 188 4 2 7 8 7 13 0 5 22 42 49 82 280 415
853 1369 1215 2022 34 61 315 559 401 710 34 61 72 128 84 150 12 22 26 47 31
55 8 12 114 197 268 470 14 25 56 99 95 165 38 66 81 140 95 165 114 203 395
667 526 870 165 258 422 635 453 668 7 8 18 22 24 33 8 16 170 231 232 309 50
64 182 226 187 230 3 3 18 21 34 40 195 239 532 571 816 804 100 81 320 235
477 332 67 42 299 161 388 201 28 12 77 34 110 48 33 15 103 42 155 61 52 19
98 38 103 43 5 5 -21 12 -60 16 -37 4 -75 8 -83 10 -8 1 -42 6 -75 9 -33 4
-71 9 -85 11 -14 2 -52 6 -85 10 -33 3 -71 8 -85 10 -14 2 -56 6 -95 10 -38 3
-83 8 -100 10 -16 2 -61 7 -100 10 -38 3 -88 7 -110 10 -39 4 -154 14 -245 20
-25 2 -79 6 -120 9 -109 9 -189 14 -325 22 -66 3 -149 8 -185 10 -86 6 -1146
14 -1151 10z"/>
<path d="M26759 21596 c-2 -2 -56 -7 -119 -10 -168 -10 -418 -28 -540 -41 -78
-8 -133 -14 -200 -20 -63 -5 -89 -8 -175 -19 -22 -3 -58 -8 -80 -10 -60 -8
-257 -36 -282 -40 -11 -3 -43 -8 -70 -12 -26 -3 -57 -8 -68 -10 -11 -2 -36 -7
-55 -10 -19 -3 -96 -17 -170 -31 -74 -14 -146 -27 -160 -29 -14 -3 -32 -7 -40
-9 -8 -2 -28 -7 -45 -9 -59 -11 -122 -24 -235 -51 -123 -29 -140 -33 -167 -39
-10 -2 -56 -14 -103 -26 -47 -12 -93 -23 -103 -25 -9 -2 -21 -6 -25 -9 -5 -3
-19 -7 -33 -10 -13 -3 -40 -10 -59 -15 -19 -5 -51 -14 -70 -20 -251 -69 -836
-268 -985 -335 -16 -8 -60 -25 -97 -40 -73 -29 -277 -117 -403 -174 -149 -68
-558 -276 -685 -349 -19 -11 -62 -35 -95 -53 -33 -18 -111 -64 -173 -102 -63
-37 -117 -68 -122 -68 -5 0 -10 -3 -12 -8 -1 -4 -39 -30 -83 -57 -89 -55 -342
-223 -420 -279 -27 -19 -58 -41 -69 -48 -54 -37 -326 -243 -426 -322 -127
-101 -135 -107 -201 -162 -25 -22 -69 -59 -99 -84 -29 -25 -58 -49 -64 -55 -6
-5 -45 -39 -86 -75 -41 -36 -80 -69 -86 -75 -6 -5 -55 -50 -110 -100 -186
-168 -732 -721 -884 -895 -8 -9 -44 -50 -80 -90 -36 -40 -73 -82 -83 -94 -10
-12 -28 -32 -40 -46 -12 -14 -47 -54 -77 -90 -30 -36 -57 -67 -60 -70 -7 -7
-58 -68 -101 -121 -20 -24 -72 -87 -115 -140 -44 -53 -92 -113 -109 -134 -16
-22 -42 -53 -56 -70 -14 -16 -54 -68 -90 -115 -35 -46 -69 -91 -76 -100 -7 -8
-35 -44 -62 -80 -28 -36 -54 -69 -59 -75 -12 -15 -176 -238 -252 -341 -36 -49
-133 -186 -217 -304 -84 -118 -156 -219 -161 -225 -4 -5 -25 -37 -47 -70 -22
-33 -42 -62 -45 -65 -3 -3 -37 -52 -75 -110 -38 -58 -72 -107 -75 -110 -13
-13 -90 -132 -90 -139 0 -5 -3 -11 -7 -13 -7 -3 -141 -198 -153 -223 -3 -5
-71 -109 -151 -230 -325 -490 -364 -550 -368 -560 -2 -5 -28 -44 -56 -86 -29
-42 -54 -80 -56 -85 -2 -5 -35 -56 -73 -114 -71 -107 -123 -187 -254 -390 -41
-63 -101 -154 -133 -203 -32 -48 -59 -90 -59 -93 0 -3 -5 -10 -11 -17 -5 -7
-54 -77 -107 -157 -279 -416 -428 -636 -432 -640 -3 -3 -23 -32 -46 -65 -64
-96 -114 -166 -157 -225 -22 -30 -56 -75 -74 -100 -18 -25 -36 -50 -41 -55 -5
-6 -11 -15 -13 -21 -4 -10 -305 -411 -323 -430 -6 -7 -20 -24 -31 -40 -11 -15
-24 -32 -30 -38 -5 -6 -22 -27 -36 -46 -15 -19 -36 -46 -48 -60 -11 -14 -24
-29 -28 -35 -24 -30 -188 -231 -193 -235 -3 -3 -28 -32 -55 -65 -45 -53 -69
-82 -140 -160 -11 -13 -49 -56 -85 -96 -170 -192 -473 -496 -669 -669 -40 -36
-80 -72 -90 -81 -44 -43 -283 -234 -416 -333 -613 -457 -1270 -776 -1946 -946
-199 -50 -213 -53 -413 -89 -88 -15 -155 -30 -150 -33 5 -3 27 -9 49 -13 22
-5 47 -10 55 -11 8 -2 31 -5 50 -8 19 -3 74 -12 122 -20 48 -9 131 -22 185
-30 54 -8 107 -17 118 -19 11 -3 46 -8 79 -12 32 -3 68 -8 80 -10 62 -10 204
-31 281 -40 28 -4 61 -8 75 -10 22 -3 66 -9 155 -20 17 -2 57 -7 90 -11 33 -3
68 -8 77 -9 9 -2 52 -7 95 -10 43 -4 87 -9 98 -11 11 -2 49 -7 85 -10 36 -3
81 -7 100 -9 19 -2 67 -6 105 -10 39 -3 81 -8 95 -10 14 -2 63 -6 110 -10 47
-3 105 -8 130 -10 25 -2 83 -7 130 -10 47 -3 110 -8 140 -10 49 -4 158 -10
365 -21 459 -24 1301 -24 1735 1 214 12 318 19 450 31 30 3 82 7 115 9 56 4
79 7 210 21 116 12 176 19 250 29 17 2 53 6 80 10 92 11 120 15 145 20 14 2
48 7 75 10 28 3 75 10 105 15 30 5 73 12 95 15 31 5 267 47 505 91 14 3 41 9
60 14 19 5 50 12 67 15 28 4 78 16 183 40 8 2 44 11 80 19 191 42 800 212 830
231 6 3 20 8 31 10 62 12 493 168 764 277 155 63 176 72 308 132 44 20 81 36
85 36 9 0 555 273 637 318 387 213 657 380 980 603 75 52 308 221 315 229 3 3
43 34 90 69 47 36 146 114 220 175 123 100 161 132 209 176 9 8 35 30 56 49
56 47 186 164 270 241 167 153 681 676 830 844 6 6 44 49 85 96 41 47 78 87
81 90 3 3 54 64 113 135 60 72 118 141 130 155 11 14 37 46 56 70 45 58 46 60
75 95 14 17 51 64 83 105 31 41 61 80 67 86 5 6 17 22 25 34 8 12 20 28 25 34
13 14 232 308 265 356 13 19 28 40 32 45 10 12 89 124 177 250 34 50 133 196
218 325 85 129 168 254 184 277 16 23 29 44 29 46 0 3 26 45 58 94 45 68 206
326 283 453 4 8 58 97 119 198 60 100 110 184 110 186 0 2 124 215 150 256 8
13 49 85 190 329 9 14 40 69 69 121 30 52 62 109 71 125 39 67 224 393 249
440 15 28 40 73 56 100 176 312 424 751 448 795 16 30 38 67 49 82 10 14 18
28 18 30 0 3 39 72 86 154 47 82 98 169 112 194 14 25 65 112 114 193 48 82
88 151 88 152 0 2 14 24 30 48 17 25 30 50 30 56 0 6 4 11 9 11 5 0 12 8 15
18 8 22 4 16 181 297 88 139 366 559 440 665 121 172 397 536 425 560 3 3 16
18 29 35 23 30 94 114 141 165 14 15 57 63 95 106 128 144 403 414 540 531
311 264 715 524 1015 652 30 13 73 32 95 42 59 26 232 89 247 89 31 1 -20 18
-72 24 -30 4 -71 9 -90 11 -19 3 -57 7 -85 10 -27 4 -61 8 -75 10 -14 2 -54 6
-90 10 -36 4 -76 8 -90 10 -14 2 -54 6 -90 10 -36 4 -76 8 -90 10 -25 3 -98
10 -225 20 -38 3 -90 8 -115 10 -25 2 -81 7 -125 10 -44 3 -102 8 -130 10 -27
2 -93 7 -145 10 -52 4 -122 9 -155 11 -78 6 -1560 16 -1566 10z"/>
</g>
</svg>
